<svg width="172" height="24" viewBox="0 0 172 24" fill="none" xmlns="http://www.w3.org/2000/svg">
<g id="Wordmark" clip-path="url(#clip0_1_24)">
<g id="Layer 2">
<g id="Layer 1">
<path id="Vector" d="M11.0894 23.2306C9.19642 23.2754 7.31038 22.9853 5.5184 22.3735C4.11953 21.8984 2.9004 21.005 2.02599 19.8143C1.19096 18.5673 0.77051 17.0887 0.82447 15.5889V15.3967H5.6826V15.9774C5.6544 16.5505 5.80712 17.1179 6.11916 17.5995C6.5309 18.0792 7.09776 18.3995 7.72118 18.5046C8.82916 18.7299 9.95922 18.8279 11.0894 18.797C12.0858 18.8196 13.0821 18.7486 14.0652 18.5847C14.5997 18.5226 15.0998 18.2894 15.491 17.9199C15.7644 17.5945 15.9071 17.1791 15.8915 16.7544C15.9118 16.4762 15.8602 16.1974 15.7417 15.9449C15.6232 15.6924 15.4417 15.4747 15.2146 15.3126C14.4995 14.9145 13.7128 14.6613 12.8997 14.5676L6.81604 13.6825C5.65789 13.5117 4.536 13.1504 3.49584 12.6132C2.61971 12.1521 1.88688 11.4594 1.37717 10.6106C0.859793 9.69159 0.602279 8.64907 0.632227 7.59483C0.633203 6.7117 0.83489 5.84034 1.22205 5.04659C1.60921 4.25285 2.17171 3.55748 2.86705 3.01304C3.77775 2.30938 4.81518 1.78727 5.92291 1.4751C7.43473 1.05504 9.00007 0.859378 10.5688 0.894364C12.7902 0.894364 14.6192 1.2121 16.0557 1.84757C17.3809 2.39098 18.5066 3.3293 19.2798 4.53496C20.0043 5.74328 20.3736 7.13139 20.3451 8.54002V8.73627H15.4509V8.27569C15.4764 7.68273 15.3244 7.09567 15.0144 6.58956C14.6119 6.09004 14.0434 5.75175 13.4124 5.63635C12.3168 5.3992 11.1966 5.29565 10.0762 5.32796C9.15878 5.30541 8.24165 5.38195 7.3407 5.55625C6.81518 5.63948 6.32604 5.87638 5.93492 6.23711C5.64498 6.55425 5.49235 6.97326 5.51039 7.40258C5.49734 7.75968 5.58774 8.11294 5.77072 8.41987C5.96493 8.70942 6.24509 8.93074 6.57173 9.05267C7.04244 9.23645 7.53103 9.37068 8.02957 9.45317L14.1293 10.4104C15.4871 10.5823 16.8 11.0104 17.9982 11.672C18.8775 12.1732 19.601 12.9078 20.0888 13.7947C20.5195 14.636 20.7407 15.5689 20.7336 16.5141C20.733 17.6792 20.3965 18.8195 19.7644 19.7982C19.0011 20.9235 17.9167 21.7929 16.6525 22.2934C15.2293 22.9182 13.375 23.2306 11.0894 23.2306Z" fill="#F2D81F"/>
<path id="Vector_2" d="M34.5229 23.2309C32.3764 23.2817 30.2498 22.8088 28.3271 21.8531C26.6151 20.9923 25.1995 19.6394 24.262 17.9682C23.2897 16.154 22.8053 14.1184 22.8562 12.0608C22.8062 10.0032 23.2905 7.9678 24.262 6.1533C25.1981 4.48666 26.6072 3.13479 28.3111 2.26839C30.2397 1.31367 32.3716 0.842215 34.5229 0.894659C36.7072 0.833624 38.8736 1.3051 40.8349 2.26839C42.5348 3.14045 43.9424 4.49092 44.884 6.1533C45.8607 7.96581 46.3454 10.0026 46.2898 12.0608C46.3416 14.1205 45.8513 16.1576 44.868 17.9682C43.9286 19.6324 42.5205 20.9834 40.8189 21.8531C38.8634 22.8171 36.7024 23.29 34.5229 23.2309ZM34.5229 18.569C35.8316 18.621 37.1371 18.4057 38.3598 17.9362C39.2958 17.5426 40.0473 16.8082 40.4624 15.8816C40.9552 14.6703 41.1819 13.3673 41.1273 12.0608C41.1849 10.7501 40.9581 9.44257 40.4624 8.22792C40.0416 7.30811 39.2914 6.57936 38.3598 6.18534C37.1363 5.71927 35.8312 5.50539 34.5229 5.55655C33.2317 5.50588 31.9437 5.71986 30.7382 6.18534C29.8164 6.58267 29.0774 7.31164 28.6675 8.22792C28.1874 9.4465 27.9677 10.7521 28.0227 12.0608C27.9706 13.3653 28.1902 14.6664 28.6675 15.8816C29.0729 16.8052 29.8147 17.5398 30.7422 17.9362C31.9456 18.4046 33.2326 18.62 34.5229 18.569Z" fill="#F2D81F"/>
<path id="Vector_3" d="M53.8995 22.9224H49.0574V1.21899H53.8995V22.9224ZM66.8158 22.9224H50.3951V18.5369H66.8158V22.9224Z" fill="#F2D81F"/>
<path id="Vector_4" d="M73.4 22.9224H67.9612L77.4491 1.21899H84.3739L93.9259 22.9224H88.3429L82.3994 9.02085L81.0737 5.65259H80.7333L79.4076 9.02085L73.4 22.9224ZM88.423 18.1163H73.1437V13.7468H88.423V18.1163Z" fill="#F2D81F"/>
<path id="Vector_5" d="M100.558 22.9223H95.7043V1.21892H107.683C109.239 1.1774 110.788 1.43575 112.245 1.97988C113.399 2.40899 114.393 3.18212 115.093 4.19467C115.764 5.24659 116.103 6.47599 116.066 7.72313C116.096 8.77861 115.862 9.82489 115.385 10.767C114.917 11.6249 114.208 12.3277 113.347 12.7895C112.292 13.3404 111.134 13.6663 109.946 13.7467V14.0031C110.765 14.1789 111.518 14.5829 112.117 15.1685C112.634 15.7502 113.079 16.3915 113.443 17.0789L116.583 22.9223H110.952L107.968 17.2752C107.721 16.7891 107.405 16.3413 107.031 15.9455C106.682 15.6111 106.253 15.3724 105.785 15.2526C105.123 15.0944 104.443 15.0231 103.762 15.0404H100.558V22.9223ZM100.558 5.60445V11.3838H107.647C108.793 11.3838 109.635 11.1835 110.175 10.783C110.714 10.3825 110.981 9.61085 110.976 8.46807C110.976 7.40005 110.709 6.65111 110.175 6.22123C109.634 5.7967 108.793 5.58843 107.647 5.58843L100.558 5.60445Z" fill="#F2D81F"/>
<path id="Vector_6" d="M123.607 22.9222H118.753V1.21875H123.607V22.9222Z" fill="#F2D81F"/>
<path id="Vector_7" d="M137.982 23.2307C135.834 23.2822 133.706 22.8093 131.782 21.853C130.077 20.9878 128.668 19.6356 127.733 17.9681C126.76 16.1539 126.276 14.1183 126.327 12.0606C126.277 10.003 126.761 7.96764 127.733 6.15314C128.67 4.48739 130.079 3.13582 131.782 2.26824C133.707 1.31557 135.834 0.844174 137.982 0.894503C140.166 0.834433 142.332 1.30586 144.294 2.26824C145.992 3.14169 147.397 4.49191 148.339 6.15314C149.322 7.96376 149.814 10.0007 149.765 12.0606C149.815 14.1207 149.323 16.1578 148.339 17.9681C147.4 19.631 145.993 20.9818 144.294 21.853C142.333 22.8187 140.166 23.2916 137.982 23.2307ZM137.982 18.5688C139.289 18.621 140.593 18.4056 141.815 17.936C142.75 17.5399 143.502 16.8065 143.921 15.8814C144.41 14.6691 144.635 13.3667 144.582 12.0606C144.639 10.7504 144.413 9.44331 143.921 8.22776C143.498 7.30837 142.747 6.58002 141.815 6.18518C140.592 5.71912 139.289 5.50522 137.982 5.55639C136.689 5.5054 135.4 5.71939 134.193 6.18518C133.27 6.58052 132.53 7.31012 132.122 8.22776C131.639 9.44544 131.417 10.7516 131.474 12.0606C131.42 13.3656 131.642 14.6671 132.122 15.8814C132.526 16.8048 133.267 17.5395 134.193 17.936C135.399 18.4053 136.689 18.6207 137.982 18.5688Z" fill="#F2D81F"/>
<path id="Vector_8" d="M162.356 23.2308C160.463 23.2757 158.577 22.9855 156.785 22.3737C155.387 21.8987 154.167 21.0053 153.293 19.8145C152.458 18.5675 152.038 17.0889 152.091 15.5892V15.3969H156.95V15.9777C156.921 16.5507 157.074 17.1182 157.386 17.5997C157.798 18.0795 158.365 18.3997 158.988 18.5048C160.096 18.7301 161.226 18.8282 162.356 18.7972C163.353 18.8199 164.349 18.7488 165.332 18.5849C165.867 18.5229 166.367 18.2897 166.758 17.9201C167.03 17.5938 167.172 17.1791 167.158 16.7546C167.179 16.4764 167.127 16.1977 167.009 15.9452C166.89 15.6927 166.709 15.4749 166.482 15.3128C165.766 14.9147 164.98 14.6616 164.167 14.5679L158.083 13.6948C156.925 13.5239 155.803 13.1626 154.763 12.6254C153.887 12.1643 153.154 11.4717 152.644 10.6229C152.125 9.70033 151.867 8.65336 151.899 7.59507C151.9 6.71194 152.102 5.84058 152.489 5.04684C152.876 4.25309 153.439 3.55773 154.134 3.01328C155.045 2.30962 156.082 1.78751 157.19 1.47534C158.702 1.05529 160.267 0.859622 161.836 0.894608C164.06 0.894608 165.889 1.21234 167.323 1.84781C168.642 2.39291 169.76 3.33131 170.527 4.53521C171.255 5.74233 171.625 7.13101 171.596 8.54026V8.73651H166.71V8.27593C166.735 7.68298 166.583 7.09592 166.273 6.5898C165.871 6.09028 165.302 5.752 164.671 5.6366C163.576 5.39944 162.456 5.29589 161.335 5.32821C160.418 5.30566 159.501 5.3822 158.6 5.5565C158.073 5.6408 157.583 5.87751 157.19 6.23735C156.903 6.5558 156.752 6.97426 156.769 7.40283C156.756 7.75992 156.847 8.11318 157.03 8.42011C157.224 8.70966 157.504 8.93098 157.831 9.05291C158.301 9.23669 158.79 9.37092 159.289 9.45342L165.372 10.4226C166.73 10.5956 168.043 11.0236 169.241 11.6842C170.12 12.1854 170.844 12.9201 171.332 13.8069C171.769 14.6426 171.998 15.5712 172.001 16.5143C172 17.6795 171.663 18.8197 171.031 19.7985C170.267 20.9172 169.184 21.7808 167.923 22.2776C166.498 22.9131 164.642 23.2308 162.356 23.2308Z" fill="#F2D81F"/>
</g>
</g>
</g>
<defs>
<clipPath id="clip0_1_24">
<rect width="171.368" height="22.3362" fill="white" transform="translate(0.631836 0.894531)"/>
</clipPath>
</defs>
</svg>
