<svg viewBox="0 0 76 54" fill="none" xmlns="http://www.w3.org/2000/svg">
<path d="M63.1264 34.8149C65.0812 35.6318 65.0812 39.1007 63.1264 39.9176L62.7902 40.0582L56.343 42.7509L49.8892 45.445L43.442 48.1391L30.5522 53.5259L24.4447 50.9738L18.3327 48.4231L12.2173 45.8669L6.10753 43.3162L0 40.7599L6.44715 38.0658L12.5536 40.6193L18.6644 43.1699L24.7787 45.7248L30.8862 48.2769L43.776 42.8901L50.2288 40.1974L56.6759 37.5033L50.565 34.9527L44.1213 37.6454L37.6775 40.338L31.227 43.0364L25.1127 40.4787L19.0018 37.9266L12.8898 35.3787L19.3403 32.6846L25.7875 29.9919L31.895 32.5426L25.4478 35.2367L31.5554 37.7874L38.0025 35.0947L44.4497 32.4006L38.3421 29.8499L44.7893 27.1572L50.8968 29.7079L57.0144 32.2586L63.122 34.8149H63.1264Z" fill="#F2D81F"/>
<path d="M12.4778 19.6781C10.523 18.8611 10.523 15.3923 12.4778 14.5753L12.8141 14.4347L19.2679 11.7406L25.7151 9.04652L32.1622 6.35383L45.0588 0.967041L51.1663 3.51771L57.2761 6.06979L63.3903 8.62468L69.4934 11.1768L75.6009 13.7274L69.1571 16.4215L63.0496 13.8695L56.9398 11.3188L50.8244 8.76248L44.7225 6.21181L31.8327 11.5986L25.3755 14.2913L18.9283 16.984L25.0392 19.5361L31.4841 16.8434L37.929 14.1493L44.3773 11.4566L50.4915 14.0115L56.6035 16.5635L62.7111 19.1142L56.2617 21.8069L49.8145 24.501L43.7059 21.9489L50.153 19.2562L44.05 16.7042L37.6028 19.3983L31.1557 22.0909L37.2632 24.643L30.8161 27.3357L24.7085 24.785L18.592 22.233L12.4834 19.6781H12.4778Z" fill="#F2D81F"/>
</svg>
